<svg width="48" height="48" viewBox="0 0 48 48" fill="none" xmlns="http://www.w3.org/2000/svg">
<path d="M36 38C38.2091 38 40 36.2091 40 34C40 31.7909 38.2091 30 36 30C33.7909 30 32 31.7909 32 34C32 36.2091 33.7909 38 36 38Z" stroke="#9747FF" stroke-width="2" stroke-linecap="round" stroke-linejoin="round"/>
<path d="M12 38C14.2091 38 16 36.2091 16 34C16 31.7909 14.2091 30 12 30C9.79086 30 8 31.7909 8 34C8 36.2091 9.79086 38 12 38Z" stroke="#9747FF" stroke-width="2" stroke-linecap="round" stroke-linejoin="round"/>
<path d="M16 34H26C26.393 31.489 27.5732 29.1676 29.3704 27.3704C31.1676 25.5732 33.489 24.393 36 24V14C36 12.9391 35.5786 11.9217 34.8284 11.1716C34.0783 10.4214 33.0609 10 32 10H30" stroke="#9747FF" stroke-width="2" stroke-linecap="round" stroke-linejoin="round"/>
</svg>
